<svg xmlns="http://www.w3.org/2000/svg" xmlns:xlink="http://www.w3.org/1999/xlink" width="471" height="464" viewBox="0 0 471 464">
  <defs>
    <filter id="Ellipse_2" x="7" y="0" width="464" height="464" filterUnits="userSpaceOnUse">
      <feOffset dy="3" input="SourceAlpha"/>
      <feGaussianBlur stdDeviation="10" result="blur"/>
      <feFlood flood-opacity="0.122"/>
      <feComposite operator="in" in2="blur"/>
      <feComposite in="SourceGraphic"/>
    </filter>
  </defs>
  <g id="_30_plus" data-name="30_plus" transform="translate(-87.832 -767.8)">
    <g transform="matrix(1, 0, 0, 1, 87.83, 767.8)" filter="url(#Ellipse_2)">
      <circle id="Ellipse_2-2" data-name="Ellipse 2" cx="202" cy="202" r="202" transform="translate(37 27)" fill="#fff"/>
    </g>
    <ellipse id="Ellipse_3" data-name="Ellipse 3" cx="42" cy="42.5" rx="42" ry="42.5" transform="translate(449.832 1089.8)" fill="#fff0ef" style="mix-blend-mode: multiply;isolation: isolate"/>
    <circle id="Ellipse_4" data-name="Ellipse 4" cx="69" cy="69" r="69" transform="translate(87.832 829.8)" fill="#ebf1ff" style="mix-blend-mode: multiply;isolation: isolate"/>
    <path id="Path_1123" data-name="Path 1123" d="M13.769-16.866H10.106l-3.242,5.63-3.322-5.63H-.12L5.043-7.85v4.1H8.705v-4.19Zm1.261,0V-3.754H26.3V-6.485h-7.6V-8.954l6.684-.019v-2.712H18.692v-2.45h7.4v-2.731ZM38.844-3.754h3.9L36.863-16.866H33.1L27.077-3.754h3.762l.981-2.32h6.064ZM32.92-8.692l1.961-4.676L36.8-8.692ZM56.575-3.754,53.653-8.037a4.385,4.385,0,0,0,2.5-4.228c0-2.918-2.121-4.6-5.844-4.6h-6.3V-3.754h3.662V-7.382h2.722l2.041,3.629ZM47.669-14.135h2.662c1.481,0,2.341.692,2.341,1.983,0,1.328-.861,2.039-2.341,2.039H47.669Zm10.667-2.731v5.2h2.682v-5.2Zm14.909,4.04,1.381-2.712a11.323,11.323,0,0,0-5.6-1.478c-3.382,0-5.6,1.553-5.6,4,0,4.639,7.385,3.292,7.385,5.518,0,.692-.68,1.066-1.761,1.066a9.3,9.3,0,0,1-5.083-1.983L62.538-5.736A11.014,11.014,0,0,0,69-3.641c3.122,0,5.643-1.366,5.643-4.04,0-4.714-7.385-3.479-7.385-5.649,0-.6.58-.9,1.461-.9A11.444,11.444,0,0,1,73.245-12.826Zm9.266-4.04V-3.754H93.778V-6.485h-7.6V-8.954l6.684-.019v-2.712H86.173v-2.45h7.4v-2.731Zm12.548,0,4.663,6.435L94.738-3.754h4.283l2.922-4.059,2.982,4.059h4.383L104.284-10.6l4.623-6.266h-4.323l-2.642,3.722-2.622-3.722Zm21.893,0h-6.164V-3.754h3.662V-7.382h2.5c3.582,0,5.643-1.8,5.643-4.882C122.6-15.183,120.534-16.866,116.952-16.866Zm-.18,6.753H114.45v-4.022h2.321c1.481,0,2.341.692,2.341,1.983C119.113-10.824,118.253-10.114,116.772-10.114Zm7.625-6.753V-3.754h11.267V-6.485h-7.6V-8.954l6.684-.019v-2.712h-6.684v-2.45h7.4v-2.731ZM150.472-3.754l-2.922-4.284a4.385,4.385,0,0,0,2.5-4.228c0-2.918-2.121-4.6-5.844-4.6h-6.3V-3.754h3.662V-7.382h2.722l2.041,3.629Zm-8.905-10.382h2.662c1.481,0,2.341.692,2.341,1.983,0,1.328-.861,2.039-2.341,2.039h-2.662Zm10.827-2.731V-3.754h3.662V-16.866Zm6.384,0V-3.754h11.267V-6.485h-7.6V-8.954l6.684-.019v-2.712H162.44v-2.45h7.4v-2.731Zm13.508,0V-3.754h3.422V-11.61l6.364,7.856h3.2V-16.866h-3.4v7.894l-6.364-7.894Zm25.876,4.527,2.121-2.376a8.333,8.333,0,0,0-5.663-2.245c-4.283,0-7.5,2.843-7.5,6.622,0,3.853,3.142,6.734,7.365,6.734A8.661,8.661,0,0,0,200.3-6.036l-2.141-2.151a5.363,5.363,0,0,1-3.482,1.534,3.689,3.689,0,0,1-3.8-3.722,3.67,3.67,0,0,1,3.8-3.685A4.886,4.886,0,0,1,198.162-12.34Zm3.7-4.527V-3.754h11.267V-6.485h-7.6V-8.954l6.684-.019v-2.712h-6.684v-2.45h7.4v-2.731Zm19.512,0V-3.754h3.662V-16.866Zm6.384,0V-3.754h3.422V-11.61l6.364,7.856h3.2V-16.866h-3.4v7.894l-6.364-7.894Z" transform="translate(208.697 1064.553)" fill="#183885"/>
    <path id="Path_1124" data-name="Path 1124" d="M-143.15-19.659v15.3h4.273V-9.882h7.331v-3.186h-7.331v-3.4h7.938l.023-3.186Zm14.172,0v15.3h4.273v-15.3Zm7.448,0v15.3h3.992v-9.166l7.425,9.166h3.736v-15.3h-3.969v9.21l-7.425-9.21Zm30.375,15.3H-86.6l-6.864-15.3h-4.389l-7.028,15.3h4.389l1.144-2.706h7.074Zm-6.911-5.761,2.288-5.456,2.241,5.456Zm12.935-9.537v15.3h3.992v-9.166l7.425,9.166h3.736v-15.3h-3.969v9.21l-7.425-9.21Zm30.189,5.281,2.475-2.772a9.721,9.721,0,0,0-6.607-2.619c-5,0-8.755,3.317-8.755,7.726,0,4.5,3.666,7.856,8.592,7.856a10.1,10.1,0,0,0,6.794-2.837l-2.5-2.51a6.257,6.257,0,0,1-4.062,1.79,4.3,4.3,0,0,1-4.436-4.343,4.282,4.282,0,0,1,4.436-4.3A5.7,5.7,0,0,1-54.943-14.378Zm4.319-5.281v15.3h4.273v-15.3Zm19.472,15.3H-26.6l-6.864-15.3h-4.389l-7.028,15.3h4.389l1.144-2.706h7.074Zm-6.911-5.761,2.288-5.456,2.241,5.456Zm12.935-9.537v15.3h11.207v-3.4h-6.934V-19.659Zm20.149,0v15.3h3.806v-9.69L2.633-5.888h2.8L9.24-14.05l.023,9.69h3.782v-15.3H8.376L4.034-10.733-.309-19.659Zm33.224,15.3H32.8l-6.864-15.3H21.544l-7.028,15.3h4.389L20.05-7.067h7.074Zm-6.911-5.761,2.288-5.456,2.241,5.456Zm27.6,5.761-3.409-5a5.116,5.116,0,0,0,2.918-4.932c0-3.4-2.475-5.369-6.818-5.369H34.269v15.3h4.273V-8.594h3.175L44.1-4.361ZM38.541-16.473h3.105c1.728,0,2.732.807,2.732,2.313,0,1.549-1,2.379-2.732,2.379H38.541ZM66.909-4.361,60.465-13.33l6.07-6.329h-4.95l-6.14,6.416v-6.416H51.172v15.3h4.273V-8.092l2.1-2.182L61.8-4.361Zm1.751-15.3v15.3H81.8V-7.547H72.932v-2.881l7.8-.022v-3.164h-7.8v-2.859h8.639v-3.186Zm14.335,0v3.3h4.856v12h4.273v-12h4.9v-3.3Z" transform="translate(353.37 1090.881)" fill="#183885"/>
    <path id="Path_1122" data-name="Path 1122" d="M76.613-92.158,70.346-93l33.844-29.459V-140.2H16.446l.179,23.6H64.974L35.607-90.317v16.4h21.13C70.7-73.914,78.4-69.06,78.4-59.687c0,9.206-7.7,14.562-21.488,14.562-12,0-23.816-5.021-33.665-14.562L10-36.087c12.177,8.7,31.158,14.394,49.423,14.394,31.158,0,51.034-15.734,51.034-38.33C110.457-77.931,96.49-89.313,76.613-92.158Zm90.25-49.042c-31.874,0-49.244,21.09-49.244,59.419s17.37,59.586,49.244,59.586c31.516,0,49.064-21.257,49.064-59.586S198.379-141.2,166.863-141.2Zm0,21.424c12.535,0,17.728,11.047,17.728,37.995,0,26.78-5.193,37.995-17.728,37.995-12.714,0-17.907-11.214-17.907-37.995C148.956-108.729,154.149-119.776,166.863-119.776Z" transform="translate(209.033 1050.22)" fill="#eb0900"/>
    <g id="Path_1121" data-name="Path 1121" transform="translate(392.435 964.368)" fill="#eb0900">
      <path d="M 24.32456016540527 -24.56207847595215 L 22.32456016540527 -24.56207847595215 L 14.60644054412842 -24.56207847595215 L 12.60644054412842 -24.56207847595215 L 12.60644054412842 -26.56207847595215 L 12.60644054412842 -35.16006088256836 L 3.200000762939453 -35.16006088256836 L 1.200000762939453 -35.16006088256836 L 1.200000762939453 -37.16006088256836 L 1.200000762939453 -44.43819046020508 L 1.200000762939453 -46.43819046020508 L 3.200000762939453 -46.43819046020508 L 12.60644054412842 -46.43819046020508 L 12.60644054412842 -55.09999847412109 L 12.60644054412842 -57.09999847412109 L 14.60644054412842 -57.09999847412109 L 22.32456016540527 -57.09999847412109 L 24.32456016540527 -57.09999847412109 L 24.32456016540527 -55.09999847412109 L 24.32456016540527 -46.43819046020508 L 33.66270065307617 -46.43819046020508 L 35.66270065307617 -46.43819046020508 L 35.66270065307617 -44.43819046020508 L 35.66270065307617 -37.16006088256836 L 35.66270065307617 -35.16006088256836 L 33.66270065307617 -35.16006088256836 L 24.32456016540527 -35.16006088256836 L 24.32456016540527 -26.56207847595215 L 24.32456016540527 -24.56207847595215 Z" stroke="none"/>
      <path d="M 14.60644149780273 -55.09999847412109 L 14.60644149780273 -44.43819046020508 L 3.200000762939453 -44.43819046020508 L 3.200000762939453 -37.16006088256836 L 14.60644149780273 -37.16006088256836 L 14.60644149780273 -26.56208801269531 L 22.32456207275391 -26.56208801269531 L 22.32456207275391 -37.16006088256836 L 33.66270065307617 -37.16006088256836 L 33.66270065307617 -44.43819046020508 L 22.32456207275391 -44.43819046020508 L 22.32456207275391 -55.09999847412109 L 14.60644149780273 -55.09999847412109 M 10.60644149780273 -59.09999847412109 L 14.60644149780273 -59.09999847412109 L 22.32456207275391 -59.09999847412109 L 26.32456207275391 -59.09999847412109 L 26.32456207275391 -55.09999847412109 L 26.32456207275391 -48.43819046020508 L 33.66270065307617 -48.43819046020508 L 37.66270065307617 -48.43819046020508 L 37.66270065307617 -44.43819046020508 L 37.66270065307617 -37.16006088256836 L 37.66270065307617 -33.16006088256836 L 33.66270065307617 -33.16006088256836 L 26.32456207275391 -33.16006088256836 L 26.32456207275391 -26.56208801269531 L 26.32456207275391 -22.56208801269531 L 22.32456207275391 -22.56208801269531 L 14.60644149780273 -22.56208801269531 L 10.60644149780273 -22.56208801269531 L 10.60644149780273 -26.56208801269531 L 10.60644149780273 -33.16006088256836 L 3.200000762939453 -33.16006088256836 L -0.7999992370605469 -33.16006088256836 L -0.7999992370605469 -37.16006088256836 L -0.7999992370605469 -44.43819046020508 L -0.7999992370605469 -48.43819046020508 L 3.200000762939453 -48.43819046020508 L 10.60644149780273 -48.43819046020508 L 10.60644149780273 -55.09999847412109 L 10.60644149780273 -59.09999847412109 Z" stroke="none" fill="#fff"/>
    </g>
  </g>
</svg>
